<?xml version="1.0" encoding="UTF-8" standalone="yes"?>
<svg xmlns="http://www.w3.org/2000/svg" xmlns:xlink="http://www.w3.org/1999/xlink"
  width="4096" height="4096" viewBox="0 -158.11 1000 1000"
  fill-rule="evenodd">
<g>
<path style="stroke:none; fill:#000000" d="M 205 -3.96021L 269.84 -35.1102L 276.34 -35.1102L 276.34 188.16C 276.34 203.04 276.96 212.3 278.21 215.96C 279.45 219.61 282.04 222.41 285.98 224.37C 289.92 226.33 297.93 227.44 310 227.7L 310 234.89L 209.81 234.89L 209.81 227.7C 222.34 227.44 230.43 226.36 234.08 224.47C 237.74 222.58 240.28 220.04 241.72 216.84C 243.16 213.64 243.87 204.08 243.87 188.16L 243.87 45.1698C 243.87 25.9098 243.22 13.5497 241.91 8.08978C 240.99 3.9198 239.33 0.869751 236.9 -1.09021C 234.48 -3.04022 231.57 -4.01025 228.17 -4.01025C 223.33 -4.01025 216.58 -2.00024 207.94 2.02979L 205 -3.96021z"/>
<path style="stroke:none; fill:#000000" d="M 830 183.48L 811.42 234.89L 655 234.89L 655 227.55C 701.02 185.72 733.41 151.56 752.19 125.06C 770.96 98.5598 780.34 74.3198 780.34 52.3498C 780.34 35.5898 775.19 21.8098 764.89 11.0198C 754.59 0.239746 742.27 -5.15021 727.93 -5.15021C 714.89 -5.15021 703.19 -1.40021 692.82 6.11975C 682.46 13.6398 674.8 24.6598 669.84 39.1797L 662.61 39.1797C 665.87 15.2598 674.26 -3.11023 687.77 -15.9102C 701.29 -28.7102 718.16 -35.1102 738.4 -35.1102C 759.94 -35.1102 777.92 -28.2102 792.34 -14.4202C 806.77 -0.620239 813.98 15.6498 813.98 34.3898C 813.98 47.7898 810.85 61.1898 804.59 74.5798C 794.94 95.6398 779.29 117.94 757.64 141.47C 725.16 176.81 705.09 197.96 697.42 204.93L 766.01 204.93C 779.96 204.93 789.75 204.41 795.36 203.37C 800.98 202.33 806.05 200.22 810.57 197.04C 815.09 193.85 819.03 189.33 822.39 183.48L 830 183.48z"/>
<path style="stroke:none; fill:#000000" d="M 186.01 502.93C 193.58 485.03 203.14 471.22 214.7 461.49C 226.26 451.76 240.65 446.89 257.89 446.89C 279.17 446.89 295.5 453.79 306.85 467.59C 315.47 477.88 319.78 488.88 319.78 500.6C 319.78 519.87 307.63 539.79 283.33 560.37C 299.69 566.75 312.06 575.86 320.44 587.71C 328.81 599.56 333 613.49 333 629.5C 333 652.42 325.69 672.28 311.06 689.08C 292 710.95 264.39 721.89 228.22 721.89C 210.33 721.89 198.16 719.67 191.69 715.24C 185.23 710.8 182 706.04 182 700.95C 182 697.17 183.54 693.84 186.61 690.97C 189.68 688.1 193.38 686.66 197.69 686.66C 200.96 686.66 204.29 687.19 207.69 688.25C 209.91 688.91 214.94 691.32 222.79 695.48C 230.63 699.63 236.05 702.11 239.06 702.9C 243.9 704.35 249.06 705.08 254.55 705.08C 267.89 705.08 279.49 699.93 289.36 689.63C 299.23 679.33 304.16 667.14 304.16 653.06C 304.16 642.76 301.87 632.72 297.3 622.94C 293.9 615.65 290.17 610.11 286.11 606.32C 280.49 601.11 272.77 596.38 262.96 592.15C 253.15 587.91 243.15 585.79 232.95 585.79L 226.67 585.79L 226.67 579.79C 236.98 578.49 247.32 574.77 257.69 568.65C 268.06 562.53 275.59 555.17 280.29 546.57C 284.99 537.98 287.34 528.53 287.34 518.24C 287.34 504.83 283.13 493.99 274.7 485.72C 266.27 477.44 255.78 473.31 243.24 473.31C 222.99 473.31 206.07 484.23 192.48 506.06L 186.01 502.93z"/>
<path style="stroke:none; fill:#000000" d="M 763.85 624.43L 763.85 493.06L 671.1 624.43L 763.85 624.43zM 832 624.43L 832 651.99L 796.32 651.99L 796.32 721.89L 763.85 721.89L 763.85 651.99L 652 651.99L 652 627.15L 774.67 451.89L 796.32 451.89L 796.32 624.43L 832 624.43z"/>
<path style="stroke:#000000; stroke-width:20; stroke-linecap:square; fill:none" d="M 10 -148.11L 990 -148.11L 990 831.89L 10 831.89L 10 -148.11z"/>
<path style="stroke:#000000; stroke-width:10; stroke-linecap:square; fill:none" d="M 5 341.89L 995 341.89"/>
<path style="stroke:#000000; stroke-width:10; stroke-linecap:square; fill:none" d="M 500 -153.11L 500 836.89"/>
</g>
</svg>